<svg t="1715126804950" class="icon" viewBox="0 0 1024 1024" version="1.1" xmlns="http://www.w3.org/2000/svg" p-id="1021" width="200" height="200"><path d="M165.16 690.25c-8.61 0-17.16-2.57-24.47-7.56a43.342 43.342 0 0 1-18.88-35.79V107.36c0-14.31 7.06-27.7 18.88-35.79a43.307 43.307 0 0 1 40.19-4.61l693.67 269.77c16.65 6.48 27.63 22.52 27.63 40.4s-10.98 33.93-27.63 40.4L180.89 687.3a43.52 43.52 0 0 1-15.73 2.95z m43.36-519.51v412.77l530.7-206.39-530.7-206.38z" fill="#d81e06" p-id="1022"></path><path d="M165.16 960c-23.94 0-43.35-19.41-43.35-43.35V107.36c0-23.95 19.42-43.35 43.35-43.35s43.35 19.41 43.35 43.35v809.28c0.01 23.95-19.41 43.36-43.35 43.36z" fill="#d81e06" p-id="1023"></path></svg>